# xmcd
#
# Track frame offsets:
#	225
#	13781
#	24838
#	37075
#	49821
#	61232
#	73854
#	85083
#	96094
#	110806
#	121811
#	134438
#	146681
#	158771
#	174775
#	187025
#	197752
#	210360
#	223796
#	234610
#	247025
#	258835
#	271754
#	283003
#	294355
#	305714
#	321270
#	336520
#
# Disc length: 4612 seconds
#
# Revision: 1
# Processed by: cddbd v1.5.2PL0 Copyright (c) Steve Scherf et al.
# Submitted via: audiograbber 1.83.01
#
DISCID=a912011c
DTITLE=Dorothy Shay - Here's Dorothy Shay
DYEAR=1900
DGENRE=
TTITLE0=Two-Gun Harry From Tucumcari
TTITLE1=The Sample Song
TTITLE2=Feudin' And Fightin'
TTITLE3=Makin' Love, Mountain Style
TTITLE4=Finishing School Was The Finish Of Me
TTITLE5=Mr. Sears And Mr. Roebuck
TTITLE6=You Broke Your Promise
TTITLE7=Home Cookin'
TTITLE8=Mr. Berlitz
TTITLE9=Oh Them Dudes
TTITLE10=A Little Girl From Little Rock
TTITLE11=Diamonds Are A Girl's Best Friend
TTITLE12=Why Shore
TTITLE13=Television's Tough On Love
TTITLE14=Don't You Think You Should've Mentioned It Before?
TTITLE15=Sage Brush Sadie
TTITLE16=A Little Western Town Called Beverly Hills
TTITLE17=If It Wasn't For Your Father
TTITLE18=Howlinest, Hootinest Gal
TTITLE19=Sugar Plum Kisses And Vinegar Tears
TTITLE20=Blah-Blah-Blah
TTITLE21=You Can't Get A Man With A Gun
TTITLE22=Nobody's Chasing Me
TTITLE23=Take Back Your Mink
TTITLE24=Doin' What Comes Naturally
TTITLE25=I Wanna Get Married
TTITLE26=I Cain't Say No
TTITLE27=Always True To You In My Fashion
EXTD=
EXTT0=
EXTT1=
EXTT2=
EXTT3=
EXTT4=
EXTT5=
EXTT6=
EXTT7=
EXTT8=
EXTT9=
EXTT10=
EXTT11=
EXTT12=
EXTT13=
EXTT14=
EXTT15=
EXTT16=
EXTT17=
EXTT18=
EXTT19=
EXTT20=
EXTT21=
EXTT22=
EXTT23=
EXTT24=
EXTT25=
EXTT26=
EXTT27=
PLAYORDER=
